<svg height="512" viewBox="0 0 64 64" width="512" xmlns="http://www.w3.org/2000/svg"><path d="m57 12v2h-4v-2h-4v2h-4v-2h-24v2h-4v-2h-4v2h-4v-2h-4a2 2 0 0 0 -2 2v36a2 2 0 0 0 2 2h17v-2h4v2h4v-2h4v2h25a2 2 0 0 0 2-2v-36a2 2 0 0 0 -2-2z" fill="#55b56a"/><path d="m3 18h8v30h-8z" fill="#cfdfe8"/><path d="m11 21h4v4h-4z" fill="#ffd782"/><path d="m11 25h4v4h-4z" fill="#f9bb4b"/><path d="m11 29h4v4h-4z" fill="#ffd782"/><path d="m11 33h4v4h-4z" fill="#f9bb4b"/><path d="m11 37h4v4h-4z" fill="#ffd782"/><path d="m11 41h4v4h-4z" fill="#f9bb4b"/><g fill="#394d5c"><path d="m29 16h2v3h-2z"/><path d="m33 16h2v3h-2z"/><path d="m29 31h2v3h-2z"/><path d="m33 31h2v3h-2z"/><path d="m27 16h-2v2h-2v2h3v-1h1z"/><path d="m23 22h3v2h-3z"/><path d="m23 26h3v2h-3z"/><path d="m38 22h3v2h-3z"/><path d="m38 26h3v2h-3z"/><path d="m26 30h-3v2h2v2h2v-3h-1z"/><path d="m39 18v-2h-2v3h1v1h3v-2z"/><path d="m38 31h-1v3h2v-2h2v-2h-3z"/></g><path d="m26 38h-5v-15a1 1 0 0 0 -1-1h-5v2h4v2h-4v2h4v2h-4v2h4v2h-4v2h4v2h-4v2h4v2h-4v2h5a1 1 0 0 0 1-1v-3h5z" fill="#cfdfe8"/><path d="m26 37h8v9h-8z" fill="#f4f4e6"/><path d="m37 36h2v2h-2z" fill="#fcf05a"/><path d="m37 40h2v2h-2z" fill="#fcf05a"/><path d="m37 44h2v2h-2z" fill="#fcf05a"/><path d="m18 17h2v2h-2z" fill="#8ec13f"/><path d="m18 46h2v2h-2z" fill="#8ec13f"/><path d="m45 17h2v5h-2z" fill="#3d7c48"/><path d="m54 44h7a0 0 0 0 1 0 0v4a0 0 0 0 1 0 0h-7a2 2 0 0 1 -2-2 2 2 0 0 1 2-2z" fill="#cfdfe8"/><path d="m45 44h2v5h-2z" fill="#3d7c48"/><path d="m3 22h4v4h-4z" fill="#7d8d9c"/><path d="m3 30h4v4h-4z" fill="#7d8d9c"/><path d="m6 38h2v2h-2z" fill="#8ec13f"/><path d="m6 42h2v2h-2z" fill="#8ec13f"/><circle cx="55" cy="38" fill="#ffd782" r="2"/><circle cx="55" cy="30" fill="#ffd782" r="2"/><path d="m52 23h2v2h-2z" fill="#fcf05a"/><path d="m56 23h2v2h-2z" fill="#fcf05a"/><path d="m56 19h2v2h-2z" fill="#fcf05a"/><path d="m52 19h2v2h-2z" fill="#fcf05a"/><path d="m26 19h12v12h-12z" fill="#f4f4e6"/><path d="m31 26h-2v-4h4v2h-2z" fill="#aabece"/><rect fill="#cfdfe8" height="26" rx="2" width="4" x="44" y="20"/></svg>